<svg id="Lager_1" data-name="Lager 1" xmlns="http://www.w3.org/2000/svg" viewBox="0 0 336 387"><defs><style>.cls-1{fill:#dee5f9;stroke:#0039dd;stroke-miterlimit:10;stroke-width:3px;}</style></defs><title>linethought2</title><path class="cls-1" d="M284,248.8a79.24,79.24,0,0,0,22.81-64.39,12.78,12.78,0,0,1,3.7-10.4l0,0A79.38,79.38,0,0,0,238.16,40.13a12.23,12.23,0,0,1-12.5-4.93,79.4,79.4,0,0,0-139.53,19,12.32,12.32,0,0,1-10.51,8.13A79,79,0,0,0,27.11,84.41C-4.18,114.79-5,165.29,25.37,196.6A79.58,79.58,0,0,0,46.8,212.35a12.57,12.57,0,0,1,6.94,10.9,79.37,79.37,0,0,0,134.7,54.67c1.64-1.6,3.2-3.26,4.68-5A12.54,12.54,0,0,1,206,269,79.36,79.36,0,0,0,284,248.8Z"/><path class="cls-1" d="M215.51,268.14s-28,70.21,12.63,113.81c0,0-147.56-49.73-109.06-138.95"/></svg>