<svg id="Lager_1" data-name="Lager 1" xmlns="http://www.w3.org/2000/svg" viewBox="0 0 314 325"><defs><style>.cls-1{fill:#0039dd;}</style></defs><title>linemask1</title><path class="cls-1" d="M306.64,159.07a79.18,79.18,0,0,0-29.4-61.66,12.82,12.82,0,0,1-4.74-10v-.07A79.38,79.38,0,0,0,126.7,43.9a12.23,12.23,0,0,1-12.32,5.35A79.4,79.4,0,0,0,29.13,161.32a12.36,12.36,0,0,1-1.69,13.19A79,79,0,0,0,8.78,224.45c-.64,43.6,34.5,79.88,78.11,80.56a79.33,79.33,0,0,0,26.28-4,12.54,12.54,0,0,1,12.61,2.8,79.37,79.37,0,0,0,133.91-56.58q0-3.45-.2-6.83a12.54,12.54,0,0,1,6.32-11.91A79.36,79.36,0,0,0,306.64,159.07Z"/></svg>