<svg id="Lager_1" data-name="Lager 1" xmlns="http://www.w3.org/2000/svg" viewBox="0 0 351 327"><defs><style>.cls-1{fill:#0039dd;}</style></defs><title>linemask2</title><path class="cls-1" d="M294.46,263.3a79.24,79.24,0,0,0,22.81-64.39,12.78,12.78,0,0,1,3.7-10.4l0,0A79.38,79.38,0,0,0,248.66,54.63a12.23,12.23,0,0,1-12.5-4.93,79.4,79.4,0,0,0-139.53,19,12.32,12.32,0,0,1-10.51,8.13A79,79,0,0,0,37.61,98.91C6.32,129.29,5.52,179.79,35.87,211.1A79.58,79.58,0,0,0,57.3,226.85a12.57,12.57,0,0,1,6.94,10.9,79.37,79.37,0,0,0,134.7,54.67c1.64-1.6,3.2-3.26,4.68-5a12.54,12.54,0,0,1,12.89-4A79.36,79.36,0,0,0,294.46,263.3Z"/></svg>