<svg id="Lager_1" data-name="Lager 1" xmlns="http://www.w3.org/2000/svg" viewBox="0 0 310 380"><defs><style>.cls-1{fill:#dee5f9;stroke:#0039dd;stroke-miterlimit:10;stroke-width:3px;}</style></defs><title>linethought1</title><path class="cls-1" d="M303.14,153.57a79.18,79.18,0,0,0-29.4-61.66,12.82,12.82,0,0,1-4.74-10v-.07A79.38,79.38,0,0,0,123.2,38.4a12.23,12.23,0,0,1-12.32,5.35A79.4,79.4,0,0,0,25.63,155.82,12.36,12.36,0,0,1,23.94,169,79,79,0,0,0,5.28,219c-.64,43.6,34.5,79.88,78.11,80.56a79.33,79.33,0,0,0,26.28-4,12.54,12.54,0,0,1,12.61,2.8,79.37,79.37,0,0,0,133.91-56.58q0-3.45-.2-6.83A12.54,12.54,0,0,1,262.31,223,79.36,79.36,0,0,0,303.14,153.57Z"/><path class="cls-1" d="M201.62,282.15S270,314.38,270,374c0,0,74-137-15-176"/></svg>