<svg xmlns="http://www.w3.org/2000/svg" viewBox="0 0 671.57 676.97"><defs><style>.cls-1{fill:#fff;}.cls-2{fill:#1d1d1b;}</style></defs><title>ornament</title><g id="Lager_1_kopia" data-name="Lager 1 kopia"><path class="cls-1" d="M83.58,97.82a39.25,39.25,0,1,1,39.06-43.1l0,.25-1.49.14,0-.25A37.75,37.75,0,1,0,83.58,96.32c17.37,0,39.91-14.38,66-31,39.79-25.38,89.3-57,147.85-57h.25v1.5h-.25c-58.11,0-107.42,31.46-147,56.73C124.1,83.33,101.39,97.82,83.58,97.82Z"/><path class="cls-2" d="M297.44,8.57v1c-58.19,0-107.53,31.48-147.17,56.77C124,83.1,101.31,97.57,83.58,97.57a39,39,0,1,1,38.81-42.83l-1,.1A38,38,0,1,0,83.58,96.57c17.44,0,40-14.4,66.15-31.07C189.48,40.14,239,8.57,297.44,8.57m.5-.5h-.5c-58.63,0-108.17,31.61-148,57-26.07,16.63-48.58,31-65.88,31A37.5,37.5,0,1,1,120.9,54.89l0,.5.5,0,1-.1.5-.05,0-.5A39.5,39.5,0,1,0,83.58,98.07c17.88,0,40.62-14.51,67-31.31,39.59-25.26,88.86-56.69,146.9-56.69h.5v-2Z"/><path class="cls-1" d="M297.44,218.34c-58.55,0-108.06-31.58-147.84-57-26.11-16.66-48.65-31-66-31a37.75,37.75,0,1,0,37.57,41.46l0-.25,1.49.14,0,.25a39.25,39.25,0,1,1-39.06-43.1c17.81,0,40.52,14.49,66.82,31.27,39.62,25.28,88.93,56.73,147,56.73h.25v1.5Z"/><path class="cls-2" d="M83.58,129.09c17.73,0,40.42,14.47,66.69,31.23,39.64,25.29,89,56.77,147.17,56.77v1c-58.48,0-108-31.56-147.71-56.93-26.14-16.67-48.71-31.07-66.15-31.07a38,38,0,1,0,37.82,41.73l1,.1a39,39,0,1,1-38.81-42.83m0-.5A39.5,39.5,0,1,0,122.89,172l0-.5-.5-.05-1-.1-.5,0,0,.49a37.5,37.5,0,1,1-37.32-41.18c17.3,0,39.81,14.36,65.88,31,39.81,25.4,89.35,57,148,57h.5v-2h-.5c-58,0-107.31-31.43-146.9-56.69-26.34-16.8-49.08-31.31-67-31.31Z"/><path class="cls-1" d="M599.05,97.82c-17.81,0-40.52-14.49-66.82-31.27-39.62-25.27-88.93-56.73-147-56.73h-.25V8.32h.25c58.55,0,108.06,31.59,147.84,57,26.11,16.65,48.65,31,66,31a37.75,37.75,0,1,0-37.57-41.46l0,.25L560,55l0-.25a39.25,39.25,0,1,1,39.06,43.1Z"/><path class="cls-2" d="M385.19,8.57c58.48,0,108,31.57,147.71,56.93C559,82.17,581.61,96.57,599.05,96.57a38,38,0,1,0-37.82-41.73l-1-.1a39,39,0,1,1,38.81,42.83c-17.73,0-40.42-14.47-66.69-31.23-39.64-25.29-89-56.77-147.17-56.77v-1m0-.5h-.5v2h.5c58,0,107.31,31.43,146.9,56.69,26.34,16.8,49.08,31.31,67,31.31a39.5,39.5,0,1,0-39.31-43.38l0,.5.5.05,1,.1.5,0,.05-.5a37.5,37.5,0,1,1,37.32,41.18c-17.3,0-39.81-14.36-65.88-31-39.81-25.4-89.35-57-148-57Z"/><path class="cls-1" d="M384.94,218.34v-1.5h.25c58.11,0,107.42-31.45,147-56.73,26.3-16.78,49-31.27,66.82-31.27A39.25,39.25,0,1,1,560,171.94l0-.25,1.5-.14,0,.25a37.75,37.75,0,1,0,37.57-41.46c-17.37,0-39.91,14.38-66,31-39.79,25.39-89.3,57-147.85,57Z"/><path class="cls-2" d="M599.05,129.09a39,39,0,1,1-38.81,42.83l1-.1a38,38,0,1,0,37.82-41.73c-17.44,0-40,14.4-66.15,31.07-39.75,25.37-89.23,56.93-147.71,56.93v-1c58.19,0,107.53-31.48,147.17-56.77,26.27-16.76,49-31.23,66.69-31.23m0-.5c-17.88,0-40.62,14.51-67,31.31-39.59,25.26-88.86,56.69-146.9,56.69h-.5v2h.5c58.63,0,108.17-31.61,148-57,26.07-16.64,48.58-31,65.88-31a37.5,37.5,0,1,1-37.32,41.18l-.05-.49-.5,0-1,.1-.5.05,0,.5a39.5,39.5,0,1,0,39.31-43.38Z"/><path class="cls-1" d="M341.32,196.93a83.11,83.11,0,1,1,83.1-83.11A83.2,83.2,0,0,1,341.32,196.93Zm0-164.71a81.61,81.61,0,1,0,81.6,81.6A81.69,81.69,0,0,0,341.32,32.22Z"/><path class="cls-2" d="M341.32,31a82.86,82.86,0,1,1-82.86,82.85A82.95,82.95,0,0,1,341.32,31m0,164.71a81.86,81.86,0,1,0-81.86-81.86,81.95,81.95,0,0,0,81.86,81.86m0-165.21a83.36,83.36,0,1,0,83.35,83.35,83.45,83.45,0,0,0-83.35-83.35Zm0,164.71a81.36,81.36,0,1,1,81.35-81.36,81.45,81.45,0,0,1-81.35,81.36Z"/><path class="cls-1" d="M341,227.25A113.75,113.75,0,1,1,454.75,113.5,113.87,113.87,0,0,1,341,227.25Zm0-226A112.25,112.25,0,1,0,453.25,113.5,112.38,112.38,0,0,0,341,1.25Z"/><path class="cls-2" d="M341,0A113.5,113.5,0,1,1,227.5,113.5,113.63,113.63,0,0,1,341,0m0,226A112.5,112.5,0,1,0,228.5,113.5,112.63,112.63,0,0,0,341,226M341-.5a114,114,0,1,0,114,114A114.13,114.13,0,0,0,341-.5Zm0,226a112,112,0,1,1,112-112,112.12,112.12,0,0,1-112,112Z"/><path class="cls-1" d="M115.28,172a59.25,59.25,0,1,1,59.25-59.25A59.32,59.32,0,0,1,115.28,172Zm0-117A57.75,57.75,0,1,0,173,112.79,57.81,57.81,0,0,0,115.28,55Z"/><path class="cls-2" d="M115.28,53.79a59,59,0,1,1-59,59,59.07,59.07,0,0,1,59-59m0,117a58,58,0,1,0-58-58,58.07,58.07,0,0,0,58,58m0-117.5a59.5,59.5,0,1,0,59.5,59.5,59.57,59.57,0,0,0-59.5-59.5Zm0,117a57.5,57.5,0,1,1,57.5-57.5,57.56,57.56,0,0,1-57.5,57.5Z"/><path class="cls-1" d="M559.81,172a59.25,59.25,0,1,1,59.25-59.25A59.32,59.32,0,0,1,559.81,172Zm0-117a57.75,57.75,0,1,0,57.75,57.75A57.81,57.81,0,0,0,559.81,55Z"/><path class="cls-2" d="M559.81,53.79a59,59,0,1,1-59,59,59.07,59.07,0,0,1,59-59m0,117a58,58,0,1,0-58-58,58.07,58.07,0,0,0,58,58m0-117.5a59.5,59.5,0,1,0,59.5,59.5,59.57,59.57,0,0,0-59.5-59.5Zm0,117a57.5,57.5,0,1,1,57.5-57.5,57.56,57.56,0,0,1-57.5,57.5Z"/><path class="cls-1" d="M45.13,172.75V53.25h592.5v119.5Zm591-1.5V54.75H46.63v116.5Z"/><path class="cls-2" d="M637.38,53.5v119h-592V53.5h592m-591,118h590V54.5h-590v117M637.88,53h-593V173h593V53Zm-591,2h589V171h-589V55Z"/><rect class="cls-1" x="339.92" y="-0.25" width="1.5" height="227.5"/><path class="cls-2" d="M341.17,0V227h-1V0h1m.5-.5h-2v228h2V-.5Z"/><path class="cls-1" d="M82.87,543.19a39.25,39.25,0,1,1,39.07-43.1l0,.25-1.49.14,0-.24a37.75,37.75,0,1,0-37.57,41.45c17.37,0,39.91-14.38,66-31,39.79-25.38,89.3-57,147.86-57H297v1.5h-.25c-58.13,0-107.43,31.46-147,56.73C123.39,528.7,100.68,543.19,82.87,543.19Z"/><path class="cls-2" d="M296.74,453.94v1c-58.2,0-107.54,31.48-147.18,56.77-26.27,16.76-48.95,31.23-66.69,31.23a39,39,0,1,1,38.82-42.83l-1,.1a38,38,0,1,0-37.82,41.73c17.44,0,40-14.4,66.15-31.07,39.76-25.37,89.23-56.93,147.72-56.93m.5-.5h-.5c-58.64,0-108.18,31.61-148,57-26.07,16.63-48.58,31-65.88,31a37.5,37.5,0,1,1,37.32-41.18l0,.5.5-.05,1-.1.49-.05,0-.5a39.5,39.5,0,1,0-39.31,43.38c17.88,0,40.62-14.51,67-31.31,39.59-25.26,88.86-56.69,146.91-56.69h.5v-2Z"/><path class="cls-1" d="M296.74,663.71c-58.56,0-108.07-31.59-147.85-57-26.11-16.66-48.65-31-66-31a37.75,37.75,0,1,0,37.57,41.46l0-.25,1.49.15,0,.24a39.25,39.25,0,1,1-39.07-43.1c17.81,0,40.52,14.49,66.82,31.27,39.62,25.28,88.92,56.73,147.05,56.73H297v1.5Z"/><path class="cls-2" d="M82.87,574.46c17.74,0,40.42,14.47,66.69,31.23,39.64,25.29,89,56.77,147.18,56.77v1c-58.49,0-108-31.56-147.72-56.93-26.13-16.67-48.71-31.07-66.15-31.07a38,38,0,1,0,37.82,41.73l1,.1a39,39,0,1,1-38.82-42.83m0-.5a39.5,39.5,0,1,0,39.31,43.38l0-.5-.49-.05-1-.1-.5,0,0,.49A37.5,37.5,0,1,1,82.87,576c17.3,0,39.81,14.36,65.88,31,39.81,25.4,89.35,57,148,57h.5v-2h-.5c-58.05,0-107.32-31.43-146.91-56.69-26.34-16.8-49.08-31.31-67-31.31Z"/><path class="cls-1" d="M598.34,543.19c-17.81,0-40.52-14.49-66.82-31.27-39.62-25.27-88.92-56.73-147-56.73h-.25v-1.5h.25c58.55,0,108.06,31.59,147.84,57,26.11,16.66,48.65,31,66,31a37.75,37.75,0,1,0-37.57-41.45l0,.24-1.5-.14,0-.25a39.25,39.25,0,1,1,39.06,43.1Z"/><path class="cls-2" d="M384.48,453.94c58.48,0,108,31.57,147.71,56.93,26.14,16.67,48.71,31.07,66.15,31.07a38,38,0,1,0-37.82-41.73l-1-.1a39,39,0,1,1,38.81,42.83c-17.73,0-40.42-14.47-66.69-31.23-39.64-25.29-89-56.77-147.17-56.77v-1m0-.5H384v2h.5c58,0,107.32,31.43,146.9,56.69,26.34,16.8,49.08,31.31,67,31.31A39.5,39.5,0,1,0,559,500.06l0,.5.5.05,1,.1.5.05,0-.5a37.5,37.5,0,1,1,37.32,41.18c-17.29,0-39.81-14.36-65.87-31-39.82-25.4-89.37-57-148-57Z"/><path class="cls-1" d="M384.23,663.71v-1.5h.25c58.12,0,107.42-31.45,147-56.73,26.3-16.78,49-31.27,66.82-31.27a39.25,39.25,0,1,1-39.06,43.1l0-.24,1.5-.15,0,.25a37.75,37.75,0,1,0,37.57-41.46c-17.37,0-39.91,14.38-66,31-39.79,25.39-89.3,57-147.85,57Z"/><path class="cls-2" d="M598.34,574.46a39,39,0,1,1-38.81,42.83l1-.1a38,38,0,1,0,37.82-41.73c-17.44,0-40,14.4-66.15,31.07C492.44,631.9,443,663.46,384.48,663.46v-1c58.19,0,107.53-31.48,147.17-56.77,26.27-16.76,49-31.23,66.69-31.23m0-.5c-17.88,0-40.62,14.51-67,31.31C491.8,630.53,442.53,662,384.48,662H384v2h.5c58.62,0,108.17-31.61,148-57,26.07-16.64,48.59-31,65.88-31A37.5,37.5,0,1,1,561,617.14l0-.49-.5,0-1,.1-.5.05,0,.5A39.5,39.5,0,1,0,598.34,574Z"/><path class="cls-1" d="M340.61,642.3a83.11,83.11,0,1,1,83.1-83.11A83.2,83.2,0,0,1,340.61,642.3Zm0-164.71a81.61,81.61,0,1,0,81.6,81.6A81.69,81.69,0,0,0,340.61,477.59Z"/><path class="cls-2" d="M340.61,476.34a82.86,82.86,0,1,1-82.86,82.85,82.94,82.94,0,0,1,82.86-82.85m0,164.71a81.86,81.86,0,1,0-81.86-81.86,81.95,81.95,0,0,0,81.86,81.86m0-165.21A83.36,83.36,0,1,0,424,559.19a83.45,83.45,0,0,0-83.35-83.35Zm0,164.71A81.36,81.36,0,1,1,422,559.19a81.45,81.45,0,0,1-81.35,81.36Z"/><path class="cls-1" d="M340.29,672.62A113.75,113.75,0,1,1,454,558.87,113.88,113.88,0,0,1,340.29,672.62Zm0-226A112.25,112.25,0,1,0,452.54,558.87,112.38,112.38,0,0,0,340.29,446.62Z"/><path class="cls-2" d="M340.29,445.37a113.5,113.5,0,1,1-113.5,113.5,113.63,113.63,0,0,1,113.5-113.5m0,226a112.5,112.5,0,1,0-112.5-112.5,112.63,112.63,0,0,0,112.5,112.5m0-226.5a114,114,0,1,0,114,114,114.13,114.13,0,0,0-114-114Zm0,226a112,112,0,1,1,112-112,112.12,112.12,0,0,1-112,112Z"/><path class="cls-1" d="M114.57,617.41a59.25,59.25,0,1,1,59.25-59.25A59.32,59.32,0,0,1,114.57,617.41Zm0-117a57.75,57.75,0,1,0,57.75,57.75A57.82,57.82,0,0,0,114.57,500.41Z"/><path class="cls-2" d="M114.57,499.16a59,59,0,1,1-59,59,59.07,59.07,0,0,1,59-59m0,117a58,58,0,1,0-58-58,58.07,58.07,0,0,0,58,58m0-117.5a59.5,59.5,0,1,0,59.5,59.5,59.57,59.57,0,0,0-59.5-59.5Zm0,117a57.5,57.5,0,1,1,57.5-57.5,57.56,57.56,0,0,1-57.5,57.5Z"/><path class="cls-1" d="M559.1,617.41a59.25,59.25,0,1,1,59.25-59.25A59.32,59.32,0,0,1,559.1,617.41Zm0-117a57.75,57.75,0,1,0,57.75,57.75A57.82,57.82,0,0,0,559.1,500.41Z"/><path class="cls-2" d="M559.1,499.16a59,59,0,1,1-59,59,59.07,59.07,0,0,1,59-59m0,117a58,58,0,1,0-58-58,58.07,58.07,0,0,0,58,58m0-117.5a59.5,59.5,0,1,0,59.5,59.5,59.57,59.57,0,0,0-59.5-59.5Zm0,117a57.5,57.5,0,1,1,57.5-57.5,57.56,57.56,0,0,1-57.5,57.5Z"/><path class="cls-1" d="M44.42,618.12V498.62h592.5v119.5Zm591-1.5V500.12H45.92v116.5Z"/><path class="cls-2" d="M636.67,498.87v119h-592v-119h592m-591,118h590v-117h-590v117m591.5-118.5h-593v120h593v-120Zm-591,2h589v116h-589v-116Z"/><rect class="cls-1" x="339.21" y="445.12" width="1.5" height="227.5"/><path class="cls-2" d="M340.46,445.37v227h-1v-227h1m.5-.5h-2v228h2v-228Z"/><path class="cls-1" d="M217.79,295.92v-.25c0-58.12-31.46-107.42-56.73-147-16.78-26.3-31.27-49-31.27-66.82a39.25,39.25,0,1,1,43.1,39.06l-.25,0-.14-1.5.25,0a37.75,37.75,0,1,0-41.46-37.57c0,17.37,14.38,39.91,31,66,25.38,39.79,57,89.3,57,147.85v.25Z"/><path class="cls-2" d="M169,42.81a39,39,0,0,1,3.83,77.81l-.1-1A38,38,0,1,0,131,81.81c0,17.44,14.4,40,31.07,66.15C187.47,187.71,219,237.19,219,295.67h-1c0-58.19-31.48-107.53-56.77-147.17C144.51,122.23,130,99.54,130,81.81a39,39,0,0,1,39-39m0-.5a39.55,39.55,0,0,0-39.5,39.5c0,17.88,14.51,40.62,31.31,67,25.26,39.59,56.69,88.86,56.69,146.9v.5h2v-.5c0-58.63-31.61-108.17-57-148-16.63-26.07-31-48.58-31-65.88a37.5,37.5,0,1,1,41.18,37.32l-.5.05.05.5.1,1,0,.5.5,0A39.5,39.5,0,0,0,169,42.31Z"/><path class="cls-1" d="M169,636.53a39.3,39.3,0,0,1-39.25-39.25c0-17.81,14.49-40.52,31.27-66.82,25.27-39.62,56.73-88.93,56.73-147v-.25h1.5v.25c0,58.56-31.59,108.07-57,147.85-16.65,26.11-31,48.65-31,66a37.75,37.75,0,1,0,41.46-37.57l-.25,0,.14-1.49.25,0A39.25,39.25,0,0,1,169,636.53Z"/><path class="cls-2" d="M219,383.41c0,58.49-31.57,108-56.93,147.72C145.44,557.26,131,579.84,131,597.28a38,38,0,1,0,41.73-37.82l.1-1A39,39,0,1,1,130,597.28c0-17.74,14.47-40.42,31.23-66.69C186.56,491,218,441.61,218,383.41h1m.5-.5h-2v.5c0,58-31.44,107.32-56.69,146.91-16.8,26.34-31.31,49.08-31.31,67A39.5,39.5,0,1,0,172.92,558l-.5-.05,0,.5-.1,1-.05.5.5.05a37.5,37.5,0,1,1-41.18,37.32c0-17.3,14.36-39.81,31-65.88,25.4-39.81,57-89.36,57-148v-.5Z"/><path class="cls-1" d="M113.79,422.65a83.11,83.11,0,1,1,83.1-83.11A83.2,83.2,0,0,1,113.79,422.65Zm0-164.71a81.61,81.61,0,1,0,81.6,81.6A81.7,81.7,0,0,0,113.79,257.94Z"/><path class="cls-2" d="M113.79,256.69a82.86,82.86,0,1,1-82.86,82.85,82.94,82.94,0,0,1,82.86-82.85m0,164.71a81.86,81.86,0,1,0-81.86-81.86,81.95,81.95,0,0,0,81.86,81.86m0-165.21a83.36,83.36,0,1,0,83.35,83.35,83.45,83.45,0,0,0-83.35-83.35Zm0,164.71a81.36,81.36,0,1,1,81.35-81.36,81.45,81.45,0,0,1-81.35,81.36Z"/><path class="cls-1" d="M114.11,453A113.75,113.75,0,1,1,227.86,339.22,113.87,113.87,0,0,1,114.11,453Zm0-226A112.25,112.25,0,1,0,226.36,339.22,112.38,112.38,0,0,0,114.11,227Z"/><path class="cls-2" d="M114.11,225.72A113.5,113.5,0,1,1,.61,339.22a113.63,113.63,0,0,1,113.5-113.5m0,226A112.5,112.5,0,1,0,1.61,339.22a112.62,112.62,0,0,0,112.5,112.5m0-226.5a114,114,0,1,0,114,114,114.13,114.13,0,0,0-114-114Zm0,226a112,112,0,1,1,112-112,112.12,112.12,0,0,1-112,112Z"/><path class="cls-1" d="M114.82,617.29A59.25,59.25,0,1,1,174.07,558,59.32,59.32,0,0,1,114.82,617.29Zm0-117A57.75,57.75,0,1,0,172.57,558,57.81,57.81,0,0,0,114.82,500.29Z"/><path class="cls-2" d="M114.82,499a59,59,0,1,1-59,59,59.06,59.06,0,0,1,59-59m0,117a58,58,0,1,0-58-58,58.07,58.07,0,0,0,58,58m0-117.5a59.5,59.5,0,1,0,59.5,59.5,59.57,59.57,0,0,0-59.5-59.5Zm0,117a57.5,57.5,0,1,1,57.5-57.5,57.57,57.57,0,0,1-57.5,57.5Z"/><path class="cls-1" d="M54.86,635.86V43.36h119.5v592.5Zm118-1.5V44.86H56.36v589.5Z"/><path class="cls-2" d="M174.11,43.61v592h-119v-592h119m-118,591h117v-590h-117v590m118.5-591.5h-120v593h120v-593Zm-118,2h116v589h-116v-589Z"/><rect class="cls-1" x="0.36" y="338.15" width="227.5" height="1.5"/><path class="cls-2" d="M227.61,338.4v1H.61v-1h227m.5-.5H.11v2h228v-2Z"/><path class="cls-1" d="M453.72,295.21V295c0-58.55,31.59-108.06,57-147.84,16.65-26.11,31-48.65,31-66a37.75,37.75,0,1,0-41.45,37.57l.25,0-.15,1.5-.25,0a39.25,39.25,0,1,1,43.1-39.06c0,17.81-14.49,40.52-31.27,66.82-25.27,39.62-56.73,88.93-56.73,147v.25Z"/><path class="cls-2" d="M504,42.1a39,39,0,0,1,39,39c0,17.73-14.47,40.42-31.23,66.69C486.45,187.43,455,236.77,455,295h-1c0-58.48,31.57-108,56.93-147.71C527.57,121.11,542,98.54,542,81.1a38,38,0,1,0-41.73,37.82l-.09,1A39,39,0,0,1,504,42.1m0-.5a39.5,39.5,0,0,0-3.87,78.81l.5,0,0-.5.1-1,.05-.5-.5,0A37.5,37.5,0,1,1,541.47,81.1c0,17.3-14.36,39.81-31,65.88-25.4,39.81-57,89.35-57,148v.5h2V295c0-58,31.44-107.31,56.69-146.9C529,121.72,543.47,99,543.47,81.1A39.55,39.55,0,0,0,504,41.6Z"/><path class="cls-1" d="M504,635.82a39.25,39.25,0,0,1-3.85-78.31l.25,0,.15,1.5-.25,0a37.75,37.75,0,1,0,41.45,37.57c0-17.37-14.38-39.91-31-66-25.38-39.79-57-89.3-57-147.85v-.25h1.5v.25c0,58.11,31.46,107.42,56.74,147,16.77,26.3,31.26,49,31.26,66.82A39.29,39.29,0,0,1,504,635.82Z"/><path class="cls-2" d="M455,382.71c0,58.19,31.48,107.53,56.77,147.17,16.76,26.27,31.23,49,31.23,66.69a39,39,0,1,1-42.82-38.82l.09,1A38,38,0,1,0,542,596.57c0-17.44-14.4-40-31.07-66.15C485.54,490.67,454,441.19,454,382.71h1m.5-.5h-2v.5c0,58.63,31.61,108.17,57,148,16.63,26.07,31,48.58,31,65.88a37.5,37.5,0,1,1-41.18-37.32l.5,0-.05-.5-.1-1,0-.5-.5,0a39.5,39.5,0,1,0,43.37,39.31c0-17.88-14.5-40.62-31.3-67-25.26-39.59-56.7-88.86-56.7-146.9v-.5Z"/><path class="cls-1" d="M558.24,421.94a83.11,83.11,0,1,1,83.11-83.11A83.2,83.2,0,0,1,558.24,421.94Zm0-164.71a81.61,81.61,0,1,0,81.61,81.6A81.7,81.7,0,0,0,558.24,257.23Z"/><path class="cls-2" d="M558.24,256a82.86,82.86,0,1,1-82.85,82.85A83,83,0,0,1,558.24,256m0,164.71a81.86,81.86,0,1,0-81.85-81.86,81.95,81.95,0,0,0,81.85,81.86m0-165.21a83.36,83.36,0,1,0,83.36,83.35,83.44,83.44,0,0,0-83.36-83.35Zm0,164.71a81.36,81.36,0,1,1,81.36-81.36,81.45,81.45,0,0,1-81.36,81.36Z"/><path class="cls-1" d="M558.57,452.27A113.75,113.75,0,1,1,672.32,338.52,113.87,113.87,0,0,1,558.57,452.27Zm0-226A112.25,112.25,0,1,0,670.82,338.52,112.37,112.37,0,0,0,558.57,226.27Z"/><path class="cls-2" d="M558.57,225a113.5,113.5,0,1,1-113.5,113.5A113.63,113.63,0,0,1,558.57,225m0,226a112.5,112.5,0,1,0-112.5-112.5A112.63,112.63,0,0,0,558.57,451m0-226.5a114,114,0,1,0,114,114,114.13,114.13,0,0,0-114-114Zm0,226a112,112,0,1,1,112-112,112.13,112.13,0,0,1-112,112Z"/><path class="cls-1" d="M499.32,635.15V42.65h119.5v592.5Zm118-1.5V44.15H500.82v589.5Z"/><path class="cls-2" d="M618.57,42.9v592h-119V42.9h119m-118,591h117V43.9h-117v590M619.07,42.4h-120v593h120V42.4Zm-118,2h116v589h-116V44.4Z"/></g></svg>