<svg id="Lager_1" data-name="Lager 1" xmlns="http://www.w3.org/2000/svg" viewBox="0 0 793 163"><defs><style>.cls-1{fill:#f9f7f8;}</style></defs><title>logotop</title><path class="cls-1" d="M94.66,58.86a4,4,0,0,1,.17,1.39c-.07.64,1-1.67,1-1.67Z"/><path class="cls-1" d="M57.43,43.67a11.08,11.08,0,0,0,.69-3.88A11.22,11.22,0,0,0,35.82,38L30.48,58.29,27.74,68.7l-3,11.22-5.26,20a11.44,11.44,0,0,0-.35,1.34l-.07.23h0a11.22,11.22,0,0,0,22,4.54h0Z"/><path class="cls-1" d="M412.92,44a11.06,11.06,0,0,0,.69-3.87,11.22,11.22,0,0,0-22.3-1.8L375,100.22a11.44,11.44,0,0,0-.35,1.34l-.06.23h0a11.23,11.23,0,0,0,22,4.54h0Z"/><path class="cls-1" d="M591.63,39.77A11.22,11.22,0,0,0,581.47,28.6l0-.05h-33a23.31,23.31,0,0,0-23.15,20.56L517.5,86.19a23.64,23.64,0,0,0-.63,5.42,23.32,23.32,0,0,0,23.31,23.32c.69,0,1.37,0,2.05-.09l0,0h20.2c.33,0,.67.05,1,.05a11.23,11.23,0,0,0,11-8.89l.13-.1,6.84-26,3.7-14.17h0a5.59,5.59,0,0,0,.21-1.49,5.5,5.5,0,0,0-5.07-5.48v0H553.8a10.34,10.34,0,1,0,0,20.68l19.51,0a.43.43,0,1,1,0,.86h0l-19.51,0a11.2,11.2,0,1,1,0-22.4H584a5.5,5.5,0,0,0,4.4-4.89l.07-.06,2.64-9.87h0A11.21,11.21,0,0,0,591.63,39.77Z"/><path class="cls-1" d="M703.69,88.81a5.49,5.49,0,0,0-4.9-7.57h-.2l-15.8,0,9.81-37.54a10.33,10.33,0,0,0,.54-2.07h0a10.78,10.78,0,0,0,.15-1.81A11.22,11.22,0,0,0,671,38.07L654.69,100a12.15,12.15,0,0,0-.35,1.35l-.06.23h0a12.26,12.26,0,0,0-.17,1.93,11.23,11.23,0,0,0,10.93,11.22l0,.1,27.37,0h.28a5.5,5.5,0,0,0,5.31-4v0Z"/><path class="cls-1" d="M280,28.58v0H245.88v.06a9.92,9.92,0,0,0-1.23-.07A11.22,11.22,0,0,0,244.53,51h4.2l-13,49.53h0a11,11,0,0,0-.44,3.11,11.22,11.22,0,0,0,22.34,1.48L271.84,51h6.87l0,0,.65,0a11.22,11.22,0,0,0,.6-22.43Z"/><path class="cls-1" d="M211.22,28.55a23.54,23.54,0,0,0-23.46,21.66l-13.88,51.56.1,0a11.66,11.66,0,0,0-.14,1.78,11.22,11.22,0,0,0,22.4,1L203,78.65a1.13,1.13,0,0,1,2.26.09,1,1,0,0,1-.09.43l-5.22,20a11.22,11.22,0,1,0,21.23,7.07h0l12.05-45.86a23.55,23.55,0,0,0-22.05-31.79Z"/><path class="cls-1" d="M495.45,92.59l-.07-.1-18.95.05L489.2,43.7A11.23,11.23,0,1,0,467.58,38L451.28,100a12,12,0,0,0-.35,1.34l-.06.24h0a11.21,11.21,0,0,0,10.73,13.15l0,.1,31.08,0a10.43,10.43,0,0,0,1.78.15,11.22,11.22,0,0,0,1-22.4Z"/><path class="cls-1" d="M437.27,28.6a23.54,23.54,0,0,0-23.46,21.66l-13.88,51.56.1,0a11.56,11.56,0,0,0-.14,1.78,11.22,11.22,0,0,0,22.4,1l7.81-29.89a1.11,1.11,0,0,1,2.21.18.9.9,0,0,1,0,.23h0l-6.28,24a11.22,11.22,0,1,0,21.22,7.08h0l12.06-45.87A23.56,23.56,0,0,0,437.27,28.6Z"/><path class="cls-1" d="M121.49,44.06A15.52,15.52,0,0,0,90.77,41a15.51,15.51,0,0,0-30.51.58l-15,57.21a11.22,11.22,0,1,0,21.1,7.3l.18,0L78.73,59.35a1.11,1.11,0,0,1,2.22.1,1,1,0,0,1-.09.42,1.64,1.64,0,0,1,0,.22L68.46,107.38a5.55,5.55,0,0,0-.26,1l0,.06h0a5.85,5.85,0,0,0-.07.85,5.6,5.6,0,0,0,10.94,1.65h0L92.63,59.19h0a1.1,1.1,0,0,1,1.08-.85,1.13,1.13,0,0,1,.94.52L95,58.8l-.19.73a1.07,1.07,0,0,1-.1.4L84.48,99.19a11.22,11.22,0,1,0,21.38,6.35l15-57c.11-.33.19-.68.27-1l0-.13h0A15.26,15.26,0,0,0,121.49,44.06Z"/><path class="cls-1" d="M185.46,44.06A15.52,15.52,0,0,0,154.74,41a15.51,15.51,0,0,0-30.51.58l-15,57.21a11.22,11.22,0,1,0,21.1,7.3l.18,0L142.7,59.35a1.11,1.11,0,0,1,2.22.1,1.16,1.16,0,0,1-.08.42c0,.07,0,.15,0,.22l-12.39,47.29a5.52,5.52,0,0,0-.25,1l0,.06h0a4.71,4.71,0,0,0-.08.85A5.6,5.6,0,0,0,143,110.94h0L156.6,59.19h0a1.11,1.11,0,0,1,1.08-.85,1.1,1.1,0,0,1,.94.52l.36-.06-.19.73a1.08,1.08,0,0,1-.11.4L148.45,99.19a11.23,11.23,0,1,0,21.39,6.35l15-57c.1-.33.19-.68.27-1l0-.13h0A15.9,15.9,0,0,0,185.46,44.06Z"/><path class="cls-1" d="M616.3,43.65a11.08,11.08,0,0,0,.69-3.88A11.22,11.22,0,0,0,594.69,38l-5.34,20.29-2.74,10.41-3,11.22-5.26,20a11.44,11.44,0,0,0-.35,1.34l-.07.23h0A11.22,11.22,0,0,0,600,106h0Z"/><path class="cls-1" d="M384.15,52.18A23.32,23.32,0,0,0,339,44.07h0a22.67,22.67,0,0,0-1.18,4.53L324.56,99.53a11.23,11.23,0,1,0,21.19,7.26h0l8.36-31.88a1,1,0,0,1,0-.17l.06-.2h0a1.1,1.1,0,0,1,1-.57,1.12,1.12,0,0,1,1.12,1.08h.06l-1.44,5.59a11,11,0,0,0-.92,3.53l-4.23,16.34h0a11.22,11.22,0,1,0,22,4l4.13-15.91a12.29,12.29,0,0,0,.31-1.23v0h0a11.25,11.25,0,0,0-8.14-13A23.32,23.32,0,0,0,384.15,52.18Z"/><path class="cls-1" d="M663.64,52.32a23.32,23.32,0,0,0-45.19-8.11h0a23.45,23.45,0,0,0-1.18,4.52L604.05,99.67a11,11,0,0,0-.89,4.37,11.22,11.22,0,0,0,22.07,2.88h0l8.36-31.87a.84.84,0,0,1,0-.17l.05-.2h0a1.11,1.11,0,0,1,2.08.5l.07,0-1.45,5.58a11.06,11.06,0,0,0-.91,3.54l-4.24,16.34h0a11.22,11.22,0,1,0,22,4l4.13-15.91a12.32,12.32,0,0,0,.32-1.23v0h0a11.25,11.25,0,0,0-8.14-13A23.32,23.32,0,0,0,663.64,52.32Z"/><path class="cls-1" d="M774,39.77a11.22,11.22,0,0,0-11.22-11.22c-.36,0-.71,0-1.06.05l-44.51-.05h-.49A23.33,23.33,0,0,0,694,46.84l-4.88,18.68,0,0a10.13,10.13,0,0,0-.29,2.41,10.45,10.45,0,0,0,10.45,10.45L742,78.23a1.12,1.12,0,0,1,0,2.23v0H716.12a10.44,10.44,0,0,0-9.8,7.59h0l-3.2,12.62c0,.11-.05.21-.08.32l0,.07h0a11.11,11.11,0,0,0-.3,2.54,11.23,11.23,0,0,0,10.6,11.21h1.25l20.23,0c.61.05,1.22.08,1.84.08s1.26,0,1.88-.08h.09a23.31,23.31,0,0,0,20.54-17.12h0l6.55-24.65A10.45,10.45,0,0,0,756,58.83l0,0H708.5a1.12,1.12,0,1,1,0-2.23l52.24,0,0,0,.56,0A11.23,11.23,0,0,0,772.44,47l.06,0,1.14-4.38v-.06l.12-.44h0A11.16,11.16,0,0,0,774,39.77Z"/><path class="cls-1" d="M326.37,28.55h-.32l-13.39.05v0c-.47,0-.93,0-1.4.05h-.18a23.33,23.33,0,0,0-20.66,16.23l-.09,0L279.48,86.09l.13.15a23.3,23.3,0,0,0,20.13,28.5l0,.14h10.77l0,0a11.23,11.23,0,0,0,10.28-10.29l0,0,4.22-15.65a5.51,5.51,0,0,0-4.89-7.62H320l-16.12,0v0a.86.86,0,0,1,.13-1.71l.21,0v0h19.11a5.5,5.5,0,0,0,5.18-3.67h0v0a5.41,5.41,0,0,0,.21-.79l2.43-9.29a5.51,5.51,0,0,0,.23-.91l0,0h0a5.12,5.12,0,0,0,.08-.87,5.51,5.51,0,0,0-5.5-5.51H309.89v0a.86.86,0,0,1,.11-1.71h.5l18.71,0h.11a5.49,5.49,0,0,0,5.06-3.61l.05,0L336.77,44a11.22,11.22,0,0,0-10.4-15.43Z"/></svg>