<svg xmlns="http://www.w3.org/2000/svg" viewBox="0 0 236 243"><title>readme</title><g id="Lager_4" data-name="Lager 4"><path d="M183.5,212.5V27.5a19,19,0,0,0-19-19H38.5a19,19,0,0,0-19,19v2h34v185a19,19,0,0,0,19,19h126a19,19,0,0,0,19-19v-2Zm-111,17a15,15,0,0,1-15-15V27.5a19,19,0,0,0-7.38-15H164.5a15,15,0,0,1,15,15v187a19,19,0,0,0,7.38,15Z"/><rect x="70" y="39" width="49" height="4"/><rect x="70" y="51.92" width="99" height="4"/><rect x="70" y="65" width="99" height="4"/><rect x="70" y="78.08" width="99" height="4"/><rect x="70" y="91.16" width="99" height="4"/><rect x="70" y="104.25" width="99" height="4"/><rect x="70" y="117.33" width="99" height="4"/><rect x="70" y="130.41" width="99" height="4"/><rect x="70" y="143.49" width="99" height="4"/><rect x="70" y="156.58" width="99" height="4"/><rect x="70" y="169.66" width="99" height="4"/><rect x="70" y="182.74" width="99" height="4"/><rect x="70" y="195.82" width="99" height="4"/><rect x="70" y="208.9" width="99" height="4"/></g></svg>