<?xml version="1.0" encoding="utf-8"?>
<!-- Generator: Adobe Illustrator 23.0.2, SVG Export Plug-In . SVG Version: 6.00 Build 0)  -->
<!DOCTYPE svg PUBLIC "-//W3C//DTD SVG 1.1//EN" "http://www.w3.org/Graphics/SVG/1.1/DTD/svg11.dtd" [
	<!ENTITY ns_extend "http://ns.adobe.com/Extensibility/1.0/">
	<!ENTITY ns_ai "http://ns.adobe.com/AdobeIllustrator/10.0/">
	<!ENTITY ns_graphs "http://ns.adobe.com/Graphs/1.0/">
	<!ENTITY ns_vars "http://ns.adobe.com/Variables/1.0/">
	<!ENTITY ns_imrep "http://ns.adobe.com/ImageReplacement/1.0/">
	<!ENTITY ns_sfw "http://ns.adobe.com/SaveForWeb/1.0/">
	<!ENTITY ns_custom "http://ns.adobe.com/GenericCustomNamespace/1.0/">
	<!ENTITY ns_adobe_xpath "http://ns.adobe.com/XPath/1.0/">
]>
<svg version="1.1" xmlns:x="&ns_extend;" xmlns:i="&ns_ai;" xmlns:graph="&ns_graphs;"
	 xmlns="http://www.w3.org/2000/svg" xmlns:xlink="http://www.w3.org/1999/xlink" x="0px" y="0px" viewBox="0 0 236 243"
	 style="enable-background:new 0 0 236 243;" xml:space="preserve">
<style type="text/css">
	.st0{display:none;}
	.st1{display:inline;}
	.st2{display:inline;fill:#30E81C;}
	.st3{fill:none;stroke:#000000;stroke-miterlimit:10;}
	.st4{fill:#FFFFFF;}
	.st5{fill:none;stroke:#000000;stroke-miterlimit:10;stroke-dasharray:12.5455,12.5455;}
	.st6{fill:url(#SVGID_3_);}
	.st7{fill:url(#SVGID_4_);}
	.st8{fill:url(#SVGID_5_);}
	.st9{fill:url(#SVGID_6_);}
	.st10{fill:url(#SVGID_7_);}
	.st11{fill:url(#SVGID_8_);}
	.st12{fill:url(#SVGID_9_);}
	.st13{fill:url(#SVGID_10_);}
	.st14{fill:url(#SVGID_11_);}
	.st15{fill:url(#SVGID_12_);}
	.st16{fill:url(#SVGID_13_);}
	.st17{fill:url(#SVGID_14_);}
	.st18{fill:url(#SVGID_15_);}
	.st19{fill:url(#SVGID_16_);}
	.st20{fill:url(#SVGID_17_);}
	.st21{fill:url(#SVGID_18_);}
	.st22{fill:#FFFFFF;stroke:#000000;stroke-miterlimit:10;}
	.st23{display:inline;fill:none;stroke:#000000;stroke-miterlimit:10;}
	.st24{display:inline;fill:#FFFFFF;}
</style>
<metadata>
	<sfw  xmlns="&ns_sfw;">
		<slices></slices>
		<sliceSourceBounds  bottomLeftOrigin="true" height="17618" width="16383" x="-7231" y="-8831.5"></sliceSourceBounds>
	</sfw>
</metadata>
<g id="Lager_1" class="st0">
</g>
<g id="grid">
</g>
<g id="extras" class="st0">
</g>
<g id="Lager_7">
</g>
<g id="extras_kopia">
</g>
<g id="Lager_4">
	<g>
		<g>
			<path d="M183.5,212.5v-185c0-10.48-8.52-19-19-19h-126c-10.48,0-19,8.52-19,19v2h34v185c0,10.48,8.52,19,19,19h126
				c10.48,0,19-8.52,19-19v-2H183.5z M72.5,229.5c-8.27,0-15-6.73-15-15v-187c0-6.1-2.9-11.52-7.38-15H164.5c8.27,0,15,6.73,15,15
				v187c0,6.1,2.9,11.52,7.38,15H72.5z"/>
		</g>
		<g>
			<rect x="70" y="39" width="49" height="4"/>
		</g>
		<g>
			<rect x="70" y="51.92" width="99" height="4"/>
		</g>
		<g>
			<rect x="70" y="65" width="99" height="4"/>
		</g>
		<g>
			<rect x="70" y="78.08" width="99" height="4"/>
		</g>
		<g>
			<rect x="70" y="91.16" width="99" height="4"/>
		</g>
		<g>
			<rect x="70" y="104.25" width="99" height="4"/>
		</g>
		<g>
			<rect x="70" y="117.33" width="99" height="4"/>
		</g>
		<g>
			<rect x="70" y="130.41" width="99" height="4"/>
		</g>
		<g>
			<rect x="70" y="143.49" width="99" height="4"/>
		</g>
		<g>
			<rect x="70" y="156.58" width="99" height="4"/>
		</g>
		<g>
			<rect x="70" y="169.66" width="99" height="4"/>
		</g>
		<g>
			<rect x="70" y="182.74" width="99" height="4"/>
		</g>
		<g>
			<rect x="70" y="195.82" width="99" height="4"/>
		</g>
		<g>
			<rect x="70" y="208.9" width="99" height="4"/>
		</g>
	</g>
</g>
<g id="Lager_5" class="st0">
</g>
</svg>
